<svg width="73" height="72" viewBox="0 0 73 72" fill="none" xmlns="http://www.w3.org/2000/svg">
<path fill-rule="evenodd" clip-rule="evenodd" d="M45.8096 16.5096C46.4738 15.8219 47.2683 15.2734 48.1467 14.8961C49.0251 14.5187 49.9699 14.3201 50.9259 14.3118C51.8819 14.3035 52.83 14.4857 53.7149 14.8477C54.5997 15.2097 55.4036 15.7443 56.0796 16.4204C56.7557 17.0964 57.2903 17.9003 57.6523 18.7851C58.0143 19.67 58.1965 20.6181 58.1882 21.5741C58.1799 22.5301 57.9813 23.4749 57.6039 24.3533C57.2266 25.2317 56.6781 26.0262 55.9904 26.6904L45.1904 37.4904C43.8402 38.8402 42.0092 39.5985 40.1 39.5985C38.1908 39.5985 36.3598 38.8402 35.0096 37.4904C34.3306 36.8346 33.4213 36.4718 32.4774 36.48C31.5335 36.4882 30.6305 36.8668 29.9631 37.5343C29.2956 38.2017 28.917 39.1047 28.9088 40.0486C28.9006 40.9925 29.2634 41.9018 29.9192 42.5808C32.6196 45.2804 36.2816 46.7969 40.1 46.7969C43.9184 46.7969 47.5804 45.2804 50.2808 42.5808L61.0808 31.7808C63.7039 29.0649 65.1553 25.4275 65.1225 21.6518C65.0897 17.8762 63.5753 14.2645 60.9054 11.5946C58.2355 8.92474 54.6238 7.41031 50.8482 7.3775C47.0725 7.34469 43.4351 8.79613 40.7192 11.4192L35.3192 16.8192C34.9754 17.1513 34.7011 17.5485 34.5124 17.9877C34.3238 18.427 34.2245 18.8994 34.2203 19.3774C34.2162 19.8554 34.3072 20.3294 34.4882 20.7718C34.6693 21.2143 34.9366 21.6162 35.2746 21.9542C35.6126 22.2922 36.0145 22.5596 36.457 22.7406C36.8994 22.9216 37.3734 23.0127 37.8514 23.0085C38.3295 23.0044 38.8018 22.905 39.2411 22.7164C39.6803 22.5277 40.0775 22.2534 40.4096 21.9096L45.8096 16.5096ZM27.8096 34.5096C29.1598 33.1598 30.9908 32.4015 32.9 32.4015C34.8092 32.4015 36.6402 33.1598 37.9904 34.5096C38.3225 34.8534 38.7197 35.1277 39.1589 35.3164C39.5982 35.505 40.0706 35.6044 40.5486 35.6085C41.0266 35.6127 41.5006 35.5216 41.943 35.3406C42.3855 35.1596 42.7874 34.8922 43.1254 34.5542C43.4634 34.2162 43.7308 33.8143 43.9118 33.3718C44.0928 32.9294 44.1839 32.4554 44.1797 31.9774C44.1756 31.4994 44.0762 31.027 43.8876 30.5877C43.6989 30.1485 43.4246 29.7513 43.0808 29.4192C40.3804 26.7196 36.7184 25.2031 32.9 25.2031C29.0816 25.2031 25.4196 26.7196 22.7192 29.4192L11.9192 40.2192C10.5439 41.5476 9.44684 43.1365 8.69215 44.8934C7.93746 46.6502 7.54021 48.5398 7.5236 50.4518C7.50698 52.3638 7.87133 54.26 8.59537 56.0297C9.31942 57.7994 10.3887 59.4072 11.7407 60.7593C13.0928 62.1114 14.7006 63.1806 16.4703 63.9046C18.24 64.6287 20.1362 64.993 22.0482 64.9764C23.9602 64.9598 25.8498 64.5626 27.6066 63.8079C29.3635 63.0532 30.9525 61.9562 32.2808 60.5808L37.6808 55.1808C38.0246 54.8487 38.2989 54.4515 38.4876 54.0123C38.6762 53.573 38.7756 53.1007 38.7797 52.6227C38.7839 52.1446 38.6928 51.6706 38.5118 51.2282C38.3308 50.7857 38.0634 50.3838 37.7254 50.0458C37.3874 49.7078 36.9855 49.4405 36.543 49.2594C36.1006 49.0784 35.6266 48.9874 35.1486 48.9915C34.6706 48.9957 34.1982 49.095 33.759 49.2836C33.3197 49.4723 32.9225 49.7466 32.5904 50.0904L27.1904 55.4904C26.5262 56.1781 25.7317 56.7266 24.8533 57.1039C23.9749 57.4813 23.0301 57.6799 22.0741 57.6882C21.1181 57.6965 20.17 57.5143 19.2851 57.1523C18.4003 56.7903 17.5964 56.2557 16.9204 55.5797C16.2443 54.9036 15.7097 54.0997 15.3477 53.2149C14.9857 52.33 14.8035 51.3819 14.8118 50.4259C14.8201 49.4699 15.0187 48.5251 15.3961 47.6467C15.7734 46.7683 16.3219 45.9738 17.0096 45.3096L27.8096 34.5096Z" fill="url(#paint0_linear_2629_16429)"/>
<defs>
<linearGradient id="paint0_linear_2629_16429" x1="7.52306" y1="7.37695" x2="65.1231" y2="64.977" gradientUnits="userSpaceOnUse">
<stop stop-color="#12C8B9"/>
<stop offset="1" stop-color="#1296FC"/>
</linearGradient>
</defs>
</svg>
