<svg width="16" height="16" viewBox="0 0 16 16" fill="none" xmlns="http://www.w3.org/2000/svg">
<path fill-rule="evenodd" clip-rule="evenodd" d="M11.7655 10.1656C11.6155 10.3156 11.4121 10.3999 11.1999 10.3999C10.9878 10.3999 10.7844 10.3156 10.6343 10.1656L7.99994 7.53125L5.36554 10.1656C5.21465 10.3114 5.01257 10.392 4.80281 10.3902C4.59306 10.3884 4.39241 10.3042 4.24408 10.1559C4.09575 10.0076 4.01162 9.80693 4.0098 9.59717C4.00797 9.38741 4.08861 9.18533 4.23434 9.03445L7.43434 5.83445C7.58436 5.68447 7.7878 5.60022 7.99994 5.60022C8.21207 5.60022 8.41551 5.68447 8.56554 5.83445L11.7655 9.03445C11.9155 9.18447 11.9998 9.38792 11.9998 9.60005C11.9998 9.81218 11.9155 10.0156 11.7655 10.1656Z" fill="#404040"/>
</svg>
