<svg width="73" height="72" viewBox="0 0 73 72" fill="none" xmlns="http://www.w3.org/2000/svg">
<g clip-path="url(#clip0_1187_48741)">
<path d="M36.5 3C28.8472 2.99741 21.3929 5.43461 15.2198 9.95759C9.04666 14.4806 4.47621 20.8538 2.1723 28.1515C-0.131617 35.4492 -0.0490059 43.2914 2.40813 50.539C4.86526 57.7866 9.56895 64.0621 15.836 68.454L16.613 69H56.387L57.164 68.454C63.431 64.0621 68.1347 57.7866 70.5919 50.539C73.049 43.2914 73.1316 35.4492 70.8277 28.1515C68.5238 20.8538 63.9533 14.4806 57.7802 9.95759C51.6071 5.43461 44.1528 2.99741 36.5 3ZM18.68 59.253C13.7716 54.96 10.5854 49.0334 9.71177 42.5713C8.83809 36.1091 10.3361 29.5493 13.9283 24.107C17.5205 18.6647 22.9635 14.7087 29.2488 12.9719C35.5342 11.2351 42.2361 11.8352 48.113 14.661L43.535 19.239C41.2789 18.4236 38.8989 18.0044 36.5 18C32.2322 17.9951 28.0645 19.2921 24.5532 21.7179C21.0419 24.1437 18.3541 27.5829 16.8485 31.5762C15.343 35.5696 15.0913 39.9272 16.1272 44.0674C17.1631 48.2075 19.4372 51.9332 22.646 54.747L18.68 59.253ZM36.5 45C35.6399 45.0113 34.7875 44.8376 34.0005 44.4907C33.2134 44.1437 32.5102 43.6316 31.9384 42.989C31.3667 42.3464 30.9397 41.5884 30.6866 40.7664C30.4334 39.9444 30.36 39.0775 30.4712 38.2246C30.5825 37.3717 30.8758 36.5527 31.3313 35.8231C31.7868 35.0935 32.3938 34.4703 33.1112 33.9959C33.8287 33.5214 34.6397 33.2068 35.4894 33.0733C36.3391 32.9397 37.2076 32.9905 38.036 33.222L52.379 18.879L56.621 23.121L42.278 37.464C42.5281 38.3513 42.5679 39.2847 42.3941 40.1901C42.2203 41.0954 41.8377 41.9478 41.2768 42.6794C40.7158 43.411 39.992 44.0017 39.1628 44.4045C38.3336 44.8074 37.4218 45.0113 36.5 45ZM54.32 59.253L50.354 54.753C53.5204 51.9937 55.7788 48.3417 56.833 44.2761C57.8871 40.2105 57.6877 35.9213 56.261 31.971L60.839 27.393C63.388 32.6853 64.1306 38.6676 62.9531 44.4225C61.7755 50.1774 58.7428 55.3872 54.32 59.253Z" fill="url(#paint0_linear_1187_48741)"/>
</g>
<defs>
<linearGradient id="paint0_linear_1187_48741" x1="0.502823" y1="3" x2="66.2542" y2="74.7232" gradientUnits="userSpaceOnUse">
<stop stop-color="#12C8B9"/>
<stop offset="1" stop-color="#1296FC"/>
</linearGradient>
<clipPath id="clip0_1187_48741">
<rect width="72" height="72" fill="white" transform="translate(0.5)"/>
</clipPath>
</defs>
</svg>
