<svg width="73" height="72" viewBox="0 0 73 72" fill="none" xmlns="http://www.w3.org/2000/svg">
<path d="M36.5002 42.7529C40.2281 42.7529 43.2502 39.7308 43.2502 36.0029C43.2502 32.275 40.2281 29.2529 36.5002 29.2529C32.7723 29.2529 29.7502 32.275 29.7502 36.0029C29.7502 39.7308 32.7723 42.7529 36.5002 42.7529Z" fill="url(#paint0_linear_2629_16432)"/>
<path d="M66.6488 42.1882L66.5827 42.1347L62.1446 38.6543C61.8636 38.4319 61.6393 38.1461 61.4901 37.8202C61.341 37.4944 61.2713 37.1378 61.2868 36.7797V35.1541C61.2727 34.7983 61.3433 34.4443 61.4926 34.1211C61.642 33.798 61.8659 33.5148 62.146 33.295L66.5827 29.8132L66.6488 29.7597C67.3331 29.1897 67.7923 28.3949 67.9443 27.5174C68.0963 26.6399 67.9312 25.737 67.4785 24.97L61.4724 14.5779C61.4655 14.5681 61.4594 14.5577 61.4541 14.5469C60.9991 13.7906 60.2934 13.2175 59.4598 12.9272C58.6262 12.637 57.7173 12.6478 56.8909 12.9579L56.8416 12.9761L51.6245 15.0757C51.2952 15.2088 50.939 15.2618 50.5852 15.2303C50.2314 15.1987 49.8902 15.0836 49.5896 14.8943C49.1284 14.6036 48.6596 14.329 48.1834 14.0702C47.8746 13.9028 47.6095 13.6651 47.4094 13.3764C47.2094 13.0876 47.08 12.7559 47.0317 12.408L46.2456 6.84067L46.2287 6.73942C46.0575 5.8771 45.5948 5.09998 44.9182 4.53863C44.2416 3.97729 43.3925 3.66594 42.5134 3.65692H30.4871C29.5956 3.65977 28.7338 3.97715 28.0534 4.55313C27.3729 5.12911 26.9176 5.92675 26.7676 6.80551L26.7549 6.88426L25.9717 12.4629C25.9236 12.8098 25.7952 13.1407 25.5967 13.4293C25.3983 13.7178 25.1352 13.9561 24.8284 14.125C24.3474 14.3838 23.8777 14.658 23.4221 14.9435C23.1221 15.1316 22.7818 15.2459 22.429 15.2769C22.0763 15.308 21.7212 15.2549 21.3929 15.1221L16.1715 13.0127L16.1223 12.993C15.2946 12.6826 14.3844 12.6722 13.5499 12.9636C12.7153 13.2549 12.0094 13.8296 11.5548 14.5877L11.5365 14.6186L5.52197 25.0179C5.06864 25.7856 4.90318 26.6895 5.05518 27.5681C5.20718 28.4466 5.66674 29.2424 6.35166 29.8132L6.41775 29.8666L10.8559 33.3471C11.1369 33.5694 11.3612 33.8553 11.5103 34.1811C11.6595 34.507 11.7292 34.8636 11.7137 35.2216V36.8472C11.7278 37.203 11.6572 37.557 11.5079 37.8802C11.3585 38.2034 11.1346 38.4865 10.8545 38.7063L6.41775 42.1882L6.35166 42.2416C5.66741 42.8116 5.20824 43.6064 5.05623 44.4839C4.90423 45.3614 5.06932 46.2644 5.52197 47.0313L11.5281 57.4235C11.535 57.4333 11.5411 57.4436 11.5463 57.4544C12.0014 58.2107 12.707 58.7838 13.5406 59.0741C14.3742 59.3644 15.2832 59.3535 16.1096 59.0435L16.1588 59.0252L21.3718 56.9257C21.7011 56.7925 22.0573 56.7395 22.4111 56.7711C22.7649 56.8026 23.1061 56.9178 23.4067 57.1071C23.8679 57.3986 24.3367 57.6733 24.8129 57.9311C25.1217 58.0986 25.3868 58.3363 25.5869 58.625C25.7869 58.9137 25.9163 59.2454 25.9646 59.5933L26.7465 65.1607L26.7634 65.2619C26.9348 66.1256 27.3988 66.9038 28.0771 67.4654C28.7554 68.0269 29.6066 68.3373 30.4871 68.3444H42.5134C43.4048 68.3416 44.2667 68.0242 44.9471 67.4482C45.6276 66.8722 46.0829 66.0746 46.2329 65.1958L46.2456 65.1171L47.0288 59.5385C47.0776 59.1909 47.2071 58.8596 47.4068 58.5709C47.6066 58.2823 47.871 58.0444 48.1791 57.8763C48.6601 57.6175 49.1298 57.3433 49.5854 57.0579C49.8854 56.8697 50.2258 56.7554 50.5785 56.7244C50.9313 56.6933 51.2864 56.7464 51.6146 56.8793L56.836 58.9816L56.8852 59.0013C57.7128 59.3123 58.6233 59.323 59.4579 59.0316C60.2926 58.7401 60.9985 58.1651 61.4527 57.4066C61.4583 57.396 61.4644 57.3857 61.471 57.3757L67.4771 46.9849C67.9313 46.2173 68.0973 45.313 67.9456 44.4341C67.7938 43.5552 67.3341 42.759 66.6488 42.1882ZM47.7376 36.5294C47.6352 38.7071 46.9022 40.8081 45.6279 42.577C44.3536 44.3458 42.5927 45.7063 40.5595 46.493C38.5263 47.2797 36.3083 47.4587 34.1753 47.0082C32.0422 46.5577 30.0861 45.4971 28.5446 43.9554C27.0031 42.4138 25.9428 40.4575 25.4925 38.3244C25.0423 36.1913 25.2215 33.9733 26.0085 31.9402C26.7954 29.9071 28.1561 28.1464 29.9251 26.8723C31.6941 25.5982 33.7952 24.8655 35.9729 24.7633C37.5363 24.6945 39.0969 24.9517 40.5556 25.5187C42.0142 26.0857 43.3388 26.9499 44.4453 28.0566C45.5518 29.1632 46.416 30.488 46.9828 31.9467C47.5495 33.4054 47.8066 34.966 47.7376 36.5294Z" fill="url(#paint1_linear_2629_16432)"/>
<defs>
<linearGradient id="paint0_linear_2629_16432" x1="29.7502" y1="29.2529" x2="43.2502" y2="42.7529" gradientUnits="userSpaceOnUse">
<stop stop-color="#56DDF1"/>
<stop offset="1" stop-color="#2884B3"/>
</linearGradient>
<linearGradient id="paint1_linear_2629_16432" x1="5.00018" y1="3.65692" x2="69.6651" y2="66.6351" gradientUnits="userSpaceOnUse">
<stop stop-color="#56DDF1"/>
<stop offset="1" stop-color="#2884B3"/>
</linearGradient>
</defs>
</svg>
