<svg width="16" height="16" viewBox="0 0 16 16" fill="none" xmlns="http://www.w3.org/2000/svg">
<mask id="path-1-inside-1_15944_40075" fill="white">
<path d="M8.00035 0.666016C6.29973 0.665441 4.64322 1.20704 3.27141 2.21215C1.89961 3.21725 0.883951 4.63352 0.371971 6.25524C-0.14001 7.87696 -0.121652 9.61966 0.424378 11.2302C0.970408 12.8408 2.01567 14.2354 3.40835 15.2113L3.58101 15.3327H12.4197L12.5923 15.2113C13.985 14.2354 15.0303 12.8408 15.5763 11.2302C16.1223 9.61966 16.1407 7.87696 15.6287 6.25524C15.1167 4.63352 14.1011 3.21725 12.7293 2.21215C11.3575 1.20704 9.70096 0.665441 8.00035 0.666016ZM4.04035 13.1667C2.94959 12.2127 2.24156 10.8957 2.04741 9.45963C1.85326 8.0236 2.18615 6.56586 2.98442 5.35646C3.78269 4.14706 4.99223 3.26796 6.38898 2.882C7.78574 2.49605 9.27504 2.6294 10.581 3.25735L9.56368 4.27468C9.06234 4.09348 8.53343 4.00032 8.00035 3.99935C7.05196 3.99826 6.1258 4.28649 5.34551 4.82555C4.56521 5.36462 3.96792 6.12887 3.63335 7.01629C3.29879 7.90371 3.24287 8.87207 3.47307 9.7921C3.70327 10.7121 4.20862 11.5401 4.92168 12.1653L4.04035 13.1667ZM8.00035 9.99935C7.80923 10.0019 7.6198 9.96327 7.4449 9.88617C7.27 9.80906 7.11373 9.69525 6.98667 9.55246C6.85961 9.40967 6.76474 9.24122 6.70848 9.05855C6.65223 8.87588 6.63591 8.68324 6.66062 8.49371C6.68534 8.30418 6.75052 8.12217 6.85174 7.96003C6.95296 7.7979 7.08786 7.65942 7.24729 7.55399C7.40672 7.44856 7.58696 7.37863 7.77578 7.34896C7.9646 7.31929 8.1576 7.33056 8.34168 7.38202L11.529 4.19468L12.4717 5.13735L9.28435 8.32468C9.33993 8.52186 9.34877 8.72929 9.31014 8.93048C9.27152 9.13167 9.1865 9.32108 9.06185 9.48366C8.9372 9.64623 8.77635 9.7775 8.59208 9.86702C8.40781 9.95654 8.2052 10.0019 8.00035 9.99935ZM11.9603 13.1667L11.079 12.1667C11.7827 11.5535 12.2845 10.7419 12.5188 9.83848C12.753 8.93502 12.7087 7.98185 12.3917 7.10402L13.409 6.08668C13.9754 7.26275 14.1405 8.59215 13.8788 9.87102C13.6171 11.1499 12.9432 12.3076 11.9603 13.1667Z"/>
</mask>
<path d="M8.00035 0.666016C6.29973 0.665441 4.64322 1.20704 3.27141 2.21215C1.89961 3.21725 0.883951 4.63352 0.371971 6.25524C-0.14001 7.87696 -0.121652 9.61966 0.424378 11.2302C0.970408 12.8408 2.01567 14.2354 3.40835 15.2113L3.58101 15.3327H12.4197L12.5923 15.2113C13.985 14.2354 15.0303 12.8408 15.5763 11.2302C16.1223 9.61966 16.1407 7.87696 15.6287 6.25524C15.1167 4.63352 14.1011 3.21725 12.7293 2.21215C11.3575 1.20704 9.70096 0.665441 8.00035 0.666016ZM4.04035 13.1667C2.94959 12.2127 2.24156 10.8957 2.04741 9.45963C1.85326 8.0236 2.18615 6.56586 2.98442 5.35646C3.78269 4.14706 4.99223 3.26796 6.38898 2.882C7.78574 2.49605 9.27504 2.6294 10.581 3.25735L9.56368 4.27468C9.06234 4.09348 8.53343 4.00032 8.00035 3.99935C7.05196 3.99826 6.1258 4.28649 5.34551 4.82555C4.56521 5.36462 3.96792 6.12887 3.63335 7.01629C3.29879 7.90371 3.24287 8.87207 3.47307 9.7921C3.70327 10.7121 4.20862 11.5401 4.92168 12.1653L4.04035 13.1667ZM8.00035 9.99935C7.80923 10.0019 7.6198 9.96327 7.4449 9.88617C7.27 9.80906 7.11373 9.69525 6.98667 9.55246C6.85961 9.40967 6.76474 9.24122 6.70848 9.05855C6.65223 8.87588 6.63591 8.68324 6.66062 8.49371C6.68534 8.30418 6.75052 8.12217 6.85174 7.96003C6.95296 7.7979 7.08786 7.65942 7.24729 7.55399C7.40672 7.44856 7.58696 7.37863 7.77578 7.34896C7.9646 7.31929 8.1576 7.33056 8.34168 7.38202L11.529 4.19468L12.4717 5.13735L9.28435 8.32468C9.33993 8.52186 9.34877 8.72929 9.31014 8.93048C9.27152 9.13167 9.1865 9.32108 9.06185 9.48366C8.9372 9.64623 8.77635 9.7775 8.59208 9.86702C8.40781 9.95654 8.2052 10.0019 8.00035 9.99935ZM11.9603 13.1667L11.079 12.1667C11.7827 11.5535 12.2845 10.7419 12.5188 9.83848C12.753 8.93502 12.7087 7.98185 12.3917 7.10402L13.409 6.08668C13.9754 7.26275 14.1405 8.59215 13.8788 9.87102C13.6171 11.1499 12.9432 12.3076 11.9603 13.1667Z" fill="white"/>
<path d="M3.40835 15.2113L15.6738 -2.24343L15.6627 -2.25124L15.6516 -2.25904L3.40835 15.2113ZM3.58101 15.3327L-8.68446 32.7875L-3.16496 36.666H3.58101V15.3327ZM12.4197 15.3327V36.666H19.1656L24.6851 32.7875L12.4197 15.3327ZM12.5923 15.2113L0.349125 -2.25904L0.33801 -2.25125L0.326905 -2.24345L12.5923 15.2113ZM4.04035 13.1667L-10.0044 29.2246L6.00342 43.2255L20.0543 27.2615L4.04035 13.1667ZM10.581 3.25735L25.666 18.3423L46.9398 -2.93152L19.8256 -15.9689L10.581 3.25735ZM9.56368 4.27468L2.31203 24.3377L15.0621 28.9461L24.6486 19.3596L9.56368 4.27468ZM8.00035 3.99935L8.03939 -17.3339L8.0321 -17.334L8.0248 -17.334L8.00035 3.99935ZM4.92168 12.1653L20.9356 26.2602L35.0563 10.217L18.9872 -3.87433L4.92168 12.1653ZM8.34168 7.38202L2.59896 27.9279L14.6089 31.2847L23.4266 22.467L8.34168 7.38202ZM11.529 4.19468L26.6139 -10.8903L11.529 -25.9752L-3.55593 -10.8903L11.529 4.19468ZM12.4717 5.13735L27.5566 20.2223L42.6416 5.13734L27.5566 -9.94761L12.4717 5.13735ZM9.28435 8.32468L-5.8006 -6.76026L-14.6409 2.08001L-11.2487 14.113L9.28435 8.32468ZM11.079 12.1667L-2.93657 -3.91668L-19.1102 10.1776L-4.92562 26.2721L11.079 12.1667ZM12.3917 7.10402L-2.69326 -7.98093L-12.2773 1.60307L-7.67305 14.3509L12.3917 7.10402ZM13.409 6.08668L32.6292 -3.17043L19.5832 -30.2574L-1.67592 -8.99827L13.409 6.08668ZM8.00756 -20.6673C1.77008 -20.6694 -4.30564 -18.683 -9.33712 -14.9965L15.8799 19.4207C13.5921 21.097 10.8294 22.0003 7.99313 21.9993L8.00756 -20.6673ZM-9.33712 -14.9965C-14.3686 -11.3099 -18.0938 -6.11539 -19.9716 -0.167292L20.7156 12.6778C19.8617 15.3824 18.1678 17.7445 15.8799 19.4207L-9.33712 -14.9965ZM-19.9716 -0.167292C-21.8495 5.78081 -21.7821 12.1727 -19.7794 18.0799L20.6282 4.38057C21.5388 7.06665 21.5694 9.9731 20.7156 12.6778L-19.9716 -0.167292ZM-19.7794 18.0799C-17.7767 23.9871 -13.9429 29.102 -8.83488 32.6817L15.6516 -2.25904C17.9742 -0.631318 19.7175 1.69449 20.6282 4.38057L-19.7794 18.0799ZM-8.85713 32.6661L-8.68446 32.7875L15.8465 -2.1221L15.6738 -2.24343L-8.85713 32.6661ZM3.58101 36.666H12.4197V-6.00065H3.58101V36.666ZM24.6851 32.7875L24.8578 32.6661L0.326905 -2.24345L0.154238 -2.12212L24.6851 32.7875ZM24.8356 32.6817C29.9436 29.102 33.7774 23.9871 35.7801 18.0799L-4.62747 4.38057C-3.71682 1.6945 -1.97355 -0.631317 0.349125 -2.25904L24.8356 32.6817ZM35.7801 18.0799C37.7828 12.1727 37.8502 5.78081 35.9723 -0.167292L-4.71488 12.6778C-5.56875 9.9731 -5.53813 7.06665 -4.62747 4.38057L35.7801 18.0799ZM35.9723 -0.167292C34.0945 -6.11539 30.3693 -11.3099 25.3378 -14.9965L0.120748 19.4207C-2.16712 17.7445 -3.86101 15.3824 -4.71488 12.6778L35.9723 -0.167292ZM25.3378 -14.9965C20.3063 -18.683 14.2306 -20.6694 7.99313 -20.6673L8.00756 21.9993C5.17131 22.0003 2.40862 21.097 0.120748 19.4207L25.3378 -14.9965ZM18.0851 -2.89123C20.8782 -0.448301 22.6912 2.92415 23.1884 6.60141L-19.0936 12.3179C-18.2081 18.8672 -14.979 24.8736 -10.0044 29.2246L18.0851 -2.89123ZM23.1884 6.60141C23.6856 10.2787 22.8331 14.0115 20.789 17.1084L-14.8202 -6.39547C-18.4608 -0.879751 -19.979 5.76855 -19.0936 12.3179L23.1884 6.60141ZM20.789 17.1084C18.7449 20.2053 15.6476 22.4564 12.0709 23.4447L0.707028 -17.6807C-5.66315 -15.9205 -11.1795 -11.9112 -14.8202 -6.39547L20.789 17.1084ZM12.0709 23.4447C8.49427 24.4331 4.68061 24.0916 1.33641 22.4836L19.8256 -15.9689C13.8695 -18.8328 7.07721 -19.441 0.707028 -17.6807L12.0709 23.4447ZM-4.50393 -11.8276L-5.52126 -10.8103L24.6486 19.3596L25.666 18.3423L-4.50393 -11.8276ZM16.8153 -15.7883C14.001 -16.8056 11.0319 -17.3285 8.03939 -17.3339L7.96131 25.3326C6.03494 25.3291 4.12369 24.9925 2.31203 24.3377L16.8153 -15.7883ZM8.0248 -17.334C2.73595 -17.34 -2.42893 -15.7327 -6.78035 -12.7265L17.4714 22.3776C14.6805 24.3057 11.368 25.3366 7.97589 25.3327L8.0248 -17.334ZM-6.78035 -12.7265C-11.1318 -9.72032 -14.4627 -5.45834 -16.3284 -0.509514L23.5951 14.5421C22.3985 17.7161 20.2622 20.4496 17.4714 22.3776L-6.78035 -12.7265ZM-16.3284 -0.509514C-18.1942 4.43932 -18.506 9.83953 -17.2223 14.9702L24.1684 4.61398C24.9918 7.90461 24.7918 11.3681 23.5951 14.5421L-16.3284 -0.509514ZM-17.2223 14.9702C-15.9386 20.1009 -13.1204 24.718 -9.14387 28.205L18.9872 -3.87433C21.5376 -1.63786 23.3451 1.32334 24.1684 4.61398L-17.2223 14.9702ZM-11.0923 -1.92949L-11.9736 -0.928162L20.0543 27.2615L20.9356 26.2602L-11.0923 -1.92949ZM7.71895 -11.3321C10.5858 -11.3699 13.4272 -10.7909 16.0507 -9.63437L-1.1609 29.4067C1.81234 30.7175 5.03266 31.3737 8.28174 31.3308L7.71895 -11.3321ZM16.0507 -9.63437C18.6742 -8.4778 21.0183 -6.77069 22.9242 -4.62878L-8.95082 23.7337C-6.79082 26.1612 -4.13415 28.0959 -1.1609 29.4067L16.0507 -9.63437ZM22.9242 -4.62878C24.83 -2.48689 26.2531 0.0397534 27.0969 2.77988L-13.68 15.3372C-12.7236 18.4427 -11.1108 21.3062 -8.95082 23.7337L22.9242 -4.62878ZM27.0969 2.77988C27.9408 5.51999 28.1856 8.40948 27.8148 11.2525L-14.4936 5.73493C-14.9138 8.957 -14.6363 12.2318 -13.68 15.3372L27.0969 2.77988ZM27.8148 11.2525C27.4441 14.0955 26.4664 16.8256 24.948 19.2576L-11.2446 -3.33754C-12.9653 -0.581209 -14.0734 2.51287 -14.4936 5.73493L27.8148 11.2525ZM24.948 19.2576C23.4297 21.6897 21.4062 23.7668 19.0148 25.3483L-4.52018 -10.2403C-7.23049 -8.44799 -9.52377 -6.09386 -11.2446 -3.33754L24.948 19.2576ZM19.0148 25.3483C16.6233 26.9298 13.9198 27.9786 11.0874 28.4237L4.46412 -13.7258C1.25416 -13.2214 -1.80985 -12.0327 -4.52018 -10.2403L19.0148 25.3483ZM11.0874 28.4237C8.25511 28.8688 5.3602 28.6997 2.59896 27.9279L14.0844 -13.1638C10.955 -14.0385 7.6741 -14.2302 4.46412 -13.7258L11.0874 28.4237ZM23.4266 22.467L26.614 19.2796L-3.55593 -10.8903L-6.74327 -7.70293L23.4266 22.467ZM-3.55592 19.2796L-2.61325 20.2223L27.5566 -9.94761L26.6139 -10.8903L-3.55592 19.2796ZM-2.61326 -9.9476L-5.8006 -6.76026L24.3693 23.4096L27.5566 20.2223L-2.61326 -9.9476ZM-11.2487 14.113C-12.0933 11.1171 -12.2275 7.96538 -11.6406 4.90838L30.2609 12.9526C30.925 9.4932 30.7731 5.92665 29.8174 2.53632L-11.2487 14.113ZM-11.6406 4.90838C-11.0537 1.85141 -9.76197 -1.02654 -7.86798 -3.49678L25.9917 22.4641C28.135 19.6687 29.5968 16.4119 30.2609 12.9526L-11.6406 4.90838ZM-7.86798 -3.49678C-5.97398 -5.96705 -3.52995 -7.96152 -0.730097 -9.32173L17.9143 29.0558C21.0826 27.5165 23.8484 25.2595 25.9917 22.4641L-7.86798 -3.49678ZM-0.730097 -9.32173C2.06975 -10.6819 5.14827 -11.3704 8.26083 -11.3324L7.73987 31.3311C11.2621 31.3741 14.7459 30.595 17.9143 29.0558L-0.730097 -9.32173ZM27.965 -0.938739L27.0836 -1.93874L-4.92562 26.2721L-4.04428 27.2721L27.965 -0.938739ZM25.0946 28.25C29.0409 24.8111 31.8555 20.2597 33.1693 15.1928L-8.13169 4.48415C-7.28644 1.2242 -5.47554 -1.70414 -2.93657 -3.91668L25.0946 28.25ZM33.1693 15.1928C34.483 10.1259 34.2345 4.78028 32.4564 -0.142881L-7.67305 14.3509C-8.81708 11.1834 -8.97694 7.7441 -8.13169 4.48415L33.1693 15.1928ZM27.4766 22.189L28.494 21.1716L-1.67592 -8.99827L-2.69326 -7.98093L27.4766 22.189ZM-5.81121 15.3438C-7.27046 12.314 -7.69563 8.88917 -7.0215 5.59452L34.7791 14.1475C35.9766 8.29513 35.2214 2.21151 32.6292 -3.17043L-5.81121 15.3438ZM-7.0215 5.59452C-6.34736 2.29987 -4.61116 -0.682703 -2.07913 -2.89583L25.9998 29.2292C30.4976 25.2979 33.5816 19.9999 34.7791 14.1475L-7.0215 5.59452Z" fill="white" mask="url(#path-1-inside-1_15944_40075)"/>
</svg>
