<?xml version="1.0" standalone="no"?>
<!DOCTYPE svg PUBLIC "-//W3C//DTD SVG 20010904//EN"
 "http://www.w3.org/TR/2001/REC-SVG-20010904/DTD/svg10.dtd">
<svg version="1.0" xmlns="http://www.w3.org/2000/svg"
 width="260.000000pt" height="260.000000pt" viewBox="0 0 260.000000 260.000000"
 preserveAspectRatio="xMidYMid meet">
<metadata>
Created by potrace 1.14, written by Peter Selinger 2001-2017
</metadata>
<g transform="translate(0.000000,260.000000) scale(0.100000,-0.100000)"
fill="#000000" stroke="none">
<path d="M99 2483 c-5 -122 -3 -2325 2 -2348 3 -16 11 -29 17 -27 7 1 12 -3
12 -9 0 -6 5 -7 12 -2 19 11 68 12 68 1 0 -5 -4 -7 -9 -3 -5 3 -13 0 -17 -7
-4 -7 -4 -10 1 -6 4 4 14 3 22 -4 8 -6 13 -7 12 -2 -4 24 5 29 56 29 32 0 54
-4 51 -10 -1 -5 -10 -9 -20 -7 -9 2 -16 -3 -16 -9 0 -7 3 -9 7 -6 3 4 12 2 20
-5 8 -6 13 -7 12 -2 -4 16 13 44 22 38 5 -3 6 -11 3 -17 -4 -7 -4 -9 1 -5 4 4
14 0 22 -10 13 -15 13 -15 4 5 -14 28 -14 30 4 30 8 0 12 -4 9 -9 -3 -4 0 -8
5 -8 6 0 11 5 11 10 0 6 9 10 20 10 18 0 20 7 20 84 0 49 5 88 10 91 7 4 8 11
2 18 -11 13 -21 87 -12 87 3 0 3 25 2 56 -3 45 -1 55 10 49 10 -6 11 -5 1 6
-7 7 -13 37 -13 67 0 40 3 51 13 46 9 -6 9 -5 0 7 -14 17 -15 97 -1 105 5 4 5
10 -1 18 -5 6 -11 69 -13 139 -3 108 -1 127 12 127 10 0 11 3 4 8 -15 10 -24
50 -12 54 6 2 5 14 -1 31 -9 23 -8 27 7 27 10 0 13 3 6 8 -14 9 -24 38 -16 46
3 4 4 31 3 62 -2 44 0 55 11 49 10 -6 11 -5 1 6 -7 7 -13 37 -13 67 0 40 3 51
13 46 9 -6 9 -4 1 7 -6 8 -14 26 -16 42 -4 20 -1 27 11 27 10 0 12 3 5 8 -15
10 -24 50 -12 54 6 2 5 14 -1 31 -9 23 -8 27 7 27 10 0 13 3 7 8 -14 10 -17
59 -4 67 7 5 7 11 0 19 -8 9 -17 249 -11 276 6 25 3 110 -3 110 -5 0 -5 5 -2
10 4 6 13 9 20 8 8 -2 14 2 14 7 0 6 -6 9 -13 7 -7 -1 -13 5 -13 13 0 18 2 18
27 5 13 -7 21 -7 26 2 4 6 3 8 -4 4 -6 -3 -14 -1 -18 5 -4 8 -3 9 4 5 7 -4 12
-1 12 6 0 10 2 10 9 0 4 -8 12 -14 16 -14 4 0 12 6 16 14 7 11 9 11 9 0 0 -16
61 -13 72 3 5 6 8 5 8 -3 0 -11 15 -12 59 0 8 2 15 -7 17 -21 6 -33 17 -43 12
-11 -2 20 2 25 18 26 12 1 26 4 32 8 6 3 13 2 17 -3 3 -6 12 -8 19 -5 8 3 17
0 22 -7 5 -8 3 -10 -7 -4 -8 5 -11 4 -6 -1 5 -5 18 -9 30 -9 12 -1 29 -5 37
-10 13 -7 13 -6 2 7 -8 9 -20 14 -28 11 -9 -3 -14 1 -13 13 0 11 3 14 5 7 3
-6 16 -10 29 -7 13 2 27 -1 31 -7 5 -8 3 -9 -7 -4 -8 5 -11 4 -6 -1 11 -11 68
-14 61 -3 -2 4 -11 6 -19 2 -10 -3 -15 1 -15 13 0 12 3 15 8 8 9 -14 92 -13
92 0 1 6 7 0 16 -14 l15 -25 -6 25 c-4 14 -3 20 2 13 10 -14 125 -13 135 2 5
6 8 5 8 -2 0 -7 5 -13 11 -13 5 0 7 6 3 13 -6 8 -3 8 9 -1 9 -8 21 -11 27 -7
5 3 10 2 10 -3 0 -16 -13 -22 -26 -11 -8 7 -14 6 -20 -2 -4 -7 -3 -9 4 -5 6 3
15 -1 19 -9 8 -13 11 -12 22 9 l14 25 17 -21 c13 -17 19 -18 25 -8 5 8 4 11
-2 7 -6 -4 -14 0 -17 9 -3 8 -2 12 4 9 6 -3 10 0 10 7 0 8 3 9 8 2 9 -13 104
-13 114 1 5 6 8 5 8 -3 0 -7 4 -11 8 -8 4 2 14 1 21 -4 10 -6 8 -9 -8 -15 -11
-3 -21 -11 -21 -18 0 -8 3 -8 12 1 7 7 19 12 27 12 11 0 10 -4 -5 -14 -10 -8
-16 -18 -11 -22 4 -4 7 -2 7 4 0 7 4 12 10 12 5 0 7 -6 4 -14 -3 -8 -1 -17 5
-21 8 -4 8 -12 1 -26 -6 -11 -8 -24 -5 -29 3 -5 -3 -14 -12 -20 -17 -11 -17
-11 0 -6 11 3 17 0 17 -10 0 -9 -5 -12 -12 -8 -7 4 -8 3 -4 -5 14 -21 18 -63
5 -56 -8 5 -8 2 -2 -11 5 -11 8 -28 8 -39 -1 -11 4 -26 9 -34 9 -12 8 -13 -3
-6 -11 6 -13 4 -8 -8 4 -10 1 -17 -6 -17 -8 0 -8 -3 -2 -8 6 -4 11 -25 12 -47
2 -28 -1 -35 -7 -25 -6 9 -10 10 -10 3 0 -6 4 -14 9 -17 11 -7 9 -25 -3 -45
-6 -9 -5 -12 2 -7 16 10 8 -44 -9 -56 -11 -8 -10 -9 4 -4 11 3 17 0 17 -10 0
-9 -5 -12 -12 -8 -7 4 -8 3 -4 -5 14 -22 17 -63 5 -55 -8 4 -9 3 -5 -5 14 -22
17 -63 5 -55 -7 4 -9 3 -5 -4 3 -5 3 -12 -1 -15 -5 -2 -2 -2 5 -1 6 2 12 -1
12 -6 0 -6 -6 -10 -12 -10 -8 0 -9 -3 -3 -8 14 -10 17 -65 4 -56 -8 4 -8 0 -2
-12 13 -28 10 -53 -7 -65 -13 -9 -12 -10 3 -5 11 3 17 0 17 -10 0 -9 -5 -12
-12 -8 -7 4 -8 3 -4 -5 14 -22 17 -63 5 -55 -8 4 -9 3 -5 -5 14 -22 17 -63 5
-55 -7 4 -9 3 -5 -4 3 -5 3 -12 -1 -15 -5 -2 -2 -2 5 -1 6 2 12 -1 12 -6 0 -6
-6 -10 -12 -10 -8 0 -9 -3 -3 -8 14 -10 17 -65 4 -56 -7 4 -7 -1 0 -15 9 -16
9 -21 -1 -21 -10 0 -9 -3 1 -9 12 -8 12 -12 2 -24 -8 -10 -9 -17 -1 -22 5 -3
10 -14 10 -23 0 -15 -2 -15 -10 -2 -5 8 -10 10 -10 4 0 -6 3 -14 7 -18 11 -11
13 -75 2 -81 -6 -5 -7 -11 0 -18 5 -7 10 -16 12 -22 1 -5 11 -9 22 -7 14 3 17
0 11 -10 -6 -10 -4 -10 10 1 14 12 19 12 29 1 10 -10 9 -11 -3 -5 -13 8 -13 7
-1 -8 9 -12 17 -14 26 -7 8 6 16 5 25 -3 12 -10 12 -9 1 5 -7 10 -17 16 -21
13 -4 -3 -11 2 -14 10 -4 12 -1 14 12 7 9 -4 42 -7 72 -6 30 1 61 -4 69 -10
12 -9 13 -8 6 3 -5 9 -4 12 3 7 5 -3 13 0 15 6 4 10 6 10 6 0 1 -7 6 -10 11
-7 6 3 13 -1 16 -10 6 -13 8 -14 15 -3 5 7 14 13 21 13 9 0 12 14 11 44 -2 41
-1 43 13 25 14 -16 14 -15 0 8 -19 32 -22 83 -4 72 7 -5 8 -3 2 7 -14 23 -17
62 -3 53 8 -5 9 -3 4 6 -13 21 -13 90 -1 90 6 0 5 4 -2 9 -15 9 -13 42 3 53 6
5 5 8 -2 8 -7 0 -13 9 -13 20 0 14 5 18 18 14 14 -5 15 -4 2 5 -12 8 -15 33
-15 111 0 61 4 100 10 100 5 0 4 4 -3 9 -15 9 -13 42 3 53 6 5 5 8 -2 8 -7 0
-13 9 -13 20 0 14 5 18 18 14 14 -5 15 -4 2 5 -17 12 -24 145 -7 134 6 -4 7
-1 1 8 -13 20 -14 140 -1 132 6 -4 7 -1 2 7 -13 21 -13 90 -1 90 6 0 5 4 -2 9
-15 9 -13 42 3 53 6 5 5 8 -2 8 -7 0 -13 9 -13 20 0 14 5 18 18 14 15 -5 15
-4 1 5 -11 7 -15 24 -14 63 1 29 -3 59 -8 65 -6 9 -2 16 14 22 15 6 18 10 8
10 -14 1 -16 20 -15 147 1 80 -2 148 -5 150 -3 1 -4 17 -1 34 l4 30 -861 0
-861 0 -1 -27z"/>
<path d="M2159 2483 c-1 -16 -2 -47 -2 -70 0 -23 -3 -41 -7 -38 -4 2 -7 -2 -7
-10 0 -8 3 -15 7 -15 4 0 7 -20 7 -45 0 -27 -4 -42 -10 -38 -6 4 -7 1 -3 -6
13 -21 16 -92 4 -85 -7 5 -8 2 -3 -6 10 -16 15 -111 6 -105 -4 2 -7 -5 -7 -15
0 -10 4 -16 8 -14 4 3 8 -2 8 -11 0 -10 -5 -13 -12 -9 -7 5 -8 3 -3 -6 10 -16
15 -111 6 -106 -4 3 -7 -4 -7 -14 0 -10 4 -16 8 -14 4 3 8 -2 8 -11 0 -10 -5
-13 -12 -9 -7 5 -8 3 -3 -5 13 -22 15 -82 3 -75 -7 5 -8 2 -3 -7 13 -20 13
-49 1 -49 -8 0 -8 -2 0 -8 14 -9 15 -94 1 -85 -6 4 -7 1 -3 -6 13 -21 16 -92
4 -85 -7 5 -8 2 -3 -6 10 -16 15 -111 6 -105 -4 2 -7 -5 -7 -15 0 -10 4 -16 8
-14 4 3 8 -2 8 -11 0 -10 -5 -13 -12 -9 -7 5 -8 3 -3 -6 10 -16 15 -111 6
-106 -4 3 -7 -4 -7 -14 0 -10 4 -16 8 -14 4 3 8 -2 8 -11 0 -10 -5 -13 -12 -9
-7 5 -8 3 -3 -5 13 -22 15 -82 3 -75 -7 5 -8 2 -3 -7 13 -20 13 -49 1 -49 -8
0 -8 -2 0 -8 14 -9 15 -94 1 -85 -6 4 -7 1 -3 -6 13 -21 16 -92 4 -85 -7 5 -8
2 -3 -6 10 -16 15 -111 6 -105 -4 2 -7 -5 -7 -15 0 -10 4 -16 8 -14 4 3 8 -2
8 -11 0 -10 -5 -13 -12 -9 -7 5 -8 3 -3 -6 10 -16 15 -111 6 -106 -4 3 -7 -4
-7 -14 0 -10 4 -16 8 -14 4 3 8 -2 8 -11 0 -10 -5 -13 -12 -9 -10 6 -10 5 -1
-7 10 -12 10 -18 0 -29 -9 -10 -9 -11 1 -6 6 4 12 3 12 -1 0 -5 -6 -15 -12
-22 -8 -8 -8 -11 -2 -8 8 5 11 -4 10 -26 l-2 -32 -69 -2 c-39 -1 -72 -3 -75
-4 -3 -1 -9 0 -15 1 -23 4 -125 5 -125 0 0 -7 -69 -4 -76 3 -3 3 -16 2 -29 -3
-13 -5 -26 -6 -29 -3 -9 9 -106 9 -106 0 0 -5 -5 -5 -11 -2 -13 9 -69 13 -69
6 0 -8 -69 -6 -76 2 -3 3 -16 2 -29 -3 -13 -5 -26 -6 -29 -3 -8 8 -106 10
-106 2 0 -3 -20 -3 -45 1 -27 4 -45 3 -45 -3 0 -6 -5 -6 -13 0 -6 5 -26 9 -44
8 -25 -1 -32 3 -36 22 -2 13 0 23 4 23 5 0 5 7 2 17 -5 12 -3 14 8 9 8 -4 5 0
-5 8 -15 12 -16 16 -5 16 12 0 12 2 0 9 -11 7 -11 9 0 14 11 4 11 6 1 6 -10 1
-10 6 -2 21 8 15 8 20 -2 20 -9 0 -9 3 2 10 13 9 13 10 0 10 -13 0 -13 1 0 10
8 5 11 10 5 10 -5 0 -10 11 -10 25 0 17 4 24 14 20 11 -4 11 -3 1 10 -14 16
-20 85 -7 85 4 0 3 9 -3 20 -8 15 -8 20 1 20 9 0 9 3 0 14 -9 11 -9 15 1 19 7
3 8 6 3 6 -10 1 -11 100 -1 126 3 8 0 15 -7 15 -8 0 -6 4 3 10 13 9 13 10 0
10 -13 0 -13 1 0 10 11 7 11 10 2 10 -10 0 -10 5 -2 20 8 15 8 20 -2 20 -9 0
-9 3 2 10 13 9 13 10 0 10 -13 0 -13 1 0 10 8 5 11 10 5 10 -5 0 -10 11 -10
25 0 17 4 24 14 20 11 -4 11 -3 1 10 -14 16 -20 85 -7 85 4 0 3 9 -3 20 -8 15
-8 20 1 20 9 0 9 3 0 14 -9 11 -9 15 1 19 7 3 8 6 3 6 -10 1 -11 100 -1 126 3
8 0 15 -7 15 -8 0 -6 4 3 10 13 9 13 10 0 10 -13 0 -13 1 0 10 11 7 11 10 2
10 -10 0 -10 5 -2 20 8 15 8 20 -2 20 -9 0 -9 3 2 10 13 9 13 10 0 10 -13 0
-13 1 0 10 8 5 11 10 5 10 -5 0 -10 25 -10 55 0 30 4 55 8 55 5 0 5 6 0 13 -4
6 -8 28 -8 47 l0 35 -174 3 c-170 2 -173 2 -168 -18 3 -11 1 -20 -4 -20 -5 0
-5 -10 1 -24 5 -13 6 -27 3 -30 -5 -5 -8 -449 -3 -471 1 -5 1 -14 0 -20 -5
-27 -2 -454 4 -463 3 -6 3 -13 -2 -16 -9 -5 -7 -148 2 -171 3 -8 2 -17 -3 -19
-8 -5 -6 -119 3 -142 3 -7 2 -15 -2 -18 -8 -5 -7 -209 2 -232 3 -7 1 -14 -5
-14 -6 0 -7 -5 -4 -10 4 -6 1 -19 -6 -28 -7 -9 -9 -14 -4 -9 4 4 19 0 33 -9
13 -9 21 -11 18 -5 -4 6 -3 11 2 11 15 0 22 -13 14 -25 -4 -6 0 -3 10 7 19 21
32 24 25 5 -3 -8 1 -14 9 -14 7 0 11 4 8 9 -3 4 -2 8 3 9 4 0 18 2 31 3 18 2
21 -1 16 -17 -5 -17 -4 -18 9 -6 8 8 13 17 11 20 -2 3 4 6 12 6 9 0 13 -6 9
-15 -5 -13 -3 -13 11 -1 19 16 64 20 64 6 0 -5 -6 -7 -13 -4 -8 3 -14 0 -14
-7 0 -6 8 -12 18 -12 10 0 17 3 17 6 -2 20 3 30 12 25 6 -4 8 -11 5 -16 -4 -5
-1 -17 5 -26 11 -17 11 -17 6 0 -7 21 2 47 16 47 6 0 8 -6 5 -14 -3 -8 1 -20
9 -27 12 -10 15 -10 12 2 -2 8 4 13 14 13 10 -1 15 3 12 8 -3 5 -13 7 -22 3
-9 -3 -13 -3 -9 2 5 4 22 8 39 9 21 1 27 -1 19 -9 -6 -6 -11 -16 -11 -21 0 -7
3 -8 8 -1 4 6 16 17 26 25 18 14 19 13 13 -4 -7 -17 -5 -17 9 -5 19 16 64 20
64 6 0 -5 -6 -7 -13 -4 -8 3 -14 0 -14 -7 0 -6 8 -12 18 -12 10 0 17 3 17 6
-2 20 3 30 12 25 6 -4 8 -11 5 -16 -4 -5 -1 -17 5 -26 11 -17 11 -17 6 0 -7
21 2 47 16 47 6 0 8 -6 5 -14 -3 -8 1 -20 9 -27 12 -10 15 -10 12 2 -2 8 4 13
14 13 10 -1 15 3 12 8 -3 5 -13 7 -22 3 -9 -3 -13 -3 -9 2 5 4 22 8 39 9 21 1
27 -1 19 -9 -6 -6 -11 -16 -11 -21 0 -7 3 -8 8 -1 4 6 16 17 26 25 18 14 19
13 13 -4 -7 -17 -5 -17 9 -5 19 16 64 20 64 6 0 -5 -6 -7 -13 -4 -8 3 -14 0
-14 -7 0 -6 8 -12 18 -12 10 0 17 3 17 6 -2 20 3 30 12 25 6 -4 8 -11 5 -16
-4 -5 -1 -17 5 -26 11 -17 11 -17 6 -1 -7 22 2 48 16 48 6 0 8 -6 5 -14 -3 -8
1 -20 9 -27 12 -10 15 -10 12 2 -2 8 4 13 14 13 10 -1 15 3 12 8 -3 5 -13 7
-22 3 -9 -3 -13 -3 -9 2 5 4 22 8 39 9 21 1 27 -1 19 -9 -6 -6 -11 -16 -11
-21 0 -7 3 -8 8 -1 4 6 16 17 26 25 18 14 19 13 13 -4 -7 -17 -5 -17 9 -5 19
16 64 20 64 6 0 -5 -6 -7 -13 -4 -8 3 -14 0 -14 -7 0 -6 8 -12 18 -12 10 0 17
3 17 6 -2 20 3 30 12 25 6 -4 8 -11 5 -16 -4 -5 -1 -17 5 -26 11 -17 11 -17 6
-1 -7 22 2 48 16 48 6 0 8 -6 5 -14 -3 -8 1 -20 9 -27 12 -10 15 -10 12 2 -2
8 4 13 14 13 10 -1 15 3 12 8 -3 5 -13 7 -22 3 -9 -3 -13 -3 -9 2 5 4 22 8 39
9 21 1 27 -1 19 -9 -6 -6 -11 -16 -11 -21 0 -7 3 -8 8 -1 4 6 16 17 26 25 18
14 19 13 13 -4 -7 -17 -5 -17 9 -5 19 16 64 20 64 6 0 -5 -6 -7 -13 -4 -8 3
-14 0 -14 -7 0 -6 8 -12 18 -12 10 0 17 3 17 6 -2 20 3 30 12 25 6 -4 8 -11 5
-16 -4 -5 -1 -17 5 -26 11 -17 11 -17 6 -1 -7 22 2 48 16 48 6 0 8 -6 5 -14
-3 -8 1 -20 9 -27 12 -10 15 -10 12 2 -2 8 4 13 14 13 10 -1 15 3 12 8 -3 5
-13 7 -22 3 -9 -3 -13 -3 -9 2 5 4 22 8 39 9 21 1 27 -1 19 -9 -6 -6 -11 -16
-11 -21 0 -7 3 -8 8 -1 4 6 16 17 26 25 18 14 19 13 13 -4 -7 -17 -5 -17 9 -5
19 16 64 20 64 6 0 -5 -6 -7 -13 -4 -8 3 -14 0 -14 -7 0 -6 8 -12 18 -12 10 0
17 3 17 6 -2 20 3 30 12 25 6 -4 8 -11 5 -16 -4 -5 -1 -17 5 -26 11 -17 11
-17 6 0 -7 21 2 47 16 47 6 0 8 -7 5 -15 -7 -17 8 -29 23 -20 7 4 8 11 1 18
-6 9 -2 12 15 13 13 1 24 -2 24 -8 0 -5 -4 -7 -9 -4 -11 7 -8 -20 3 -31 4 -4
7 -3 5 2 -7 30 13 41 74 40 l62 0 -3 60 c-4 56 -3 58 15 45 17 -14 17 -14 2 5
-15 18 -17 122 -17 1145 0 619 -1 1131 -1 1138 -1 9 -42 12 -171 12 l-170 0
-1 -27z"/>
<path d="M75 2340 c-3 -5 -1 -10 4 -10 6 0 11 5 11 10 0 6 -2 10 -4 10 -3 0
-8 -4 -11 -10z"/>
<path d="M2510 2320 c0 -5 5 -10 11 -10 5 0 7 5 4 10 -3 6 -8 10 -11 10 -2 0
-4 -4 -4 -10z"/>
<path d="M2510 2240 c0 -5 5 -10 11 -10 5 0 7 5 4 10 -3 6 -8 10 -11 10 -2 0
-4 -4 -4 -10z"/>
<path d="M2510 2160 c0 -5 5 -10 11 -10 5 0 7 5 4 10 -3 6 -8 10 -11 10 -2 0
-4 -4 -4 -10z"/>
<path d="M680 2151 c-8 -6 -18 -7 -24 -4 -5 3 -6 1 -2 -5 5 -9 13 -9 27 -2 10
6 19 13 19 15 0 7 -3 6 -20 -4z"/>
<path d="M763 2153 c-7 -2 -13 -10 -13 -15 0 -6 3 -8 7 -5 3 4 12 -1 20 -11
12 -16 13 -15 6 3 -6 18 -5 19 13 5 19 -14 19 -14 0 8 -11 12 -20 22 -20 21
-1 0 -7 -3 -13 -6z"/>
<path d="M527 2132 c4 -10 2 -13 -5 -8 -6 3 -13 2 -16 -3 -4 -5 2 -8 11 -7 9
2 19 8 21 14 2 7 9 9 15 5 7 -3 8 -2 4 2 -14 16 -36 14 -30 -3z"/>
<path d="M580 2139 c-13 -9 -12 -10 2 -5 10 3 21 -1 26 -11 8 -14 10 -13 15 1
4 10 3 15 -3 11 -6 -3 -10 -1 -10 4 0 14 -11 14 -30 0z"/>
<path d="M980 2139 c-13 -9 -13 -10 0 -6 8 2 22 -2 31 -9 13 -12 16 -12 16 1
0 8 -4 12 -9 9 -4 -3 -8 0 -8 5 0 14 -11 14 -30 0z"/>
<path d="M1077 2136 c-10 -8 -14 -16 -10 -19 5 -3 14 3 21 14 14 22 13 23 -11
5z"/>
<path d="M1140 2139 c-13 -9 -13 -10 1 -6 9 3 21 1 27 -5 6 -6 12 -6 17 3 5 8
4 10 -3 5 -7 -4 -12 -2 -12 3 0 14 -11 14 -30 0z"/>
<path d="M1324 2138 c-3 -4 5 -5 17 -3 30 6 36 14 9 12 -12 -1 -24 -5 -26 -9z"/>
<path d="M1388 2131 c4 -10 7 -11 10 -3 2 7 8 10 12 7 5 -3 11 -2 14 3 2 4 -6
8 -19 8 -16 0 -21 -4 -17 -15z"/>
<path d="M76 2087 c3 -10 9 -15 12 -12 3 3 0 11 -7 18 -10 9 -11 8 -5 -6z"/>
<path d="M2510 2080 c0 -5 5 -10 11 -10 5 0 7 5 4 10 -3 6 -8 10 -11 10 -2 0
-4 -4 -4 -10z"/>
<path d="M1456 2058 c3 -5 10 -6 15 -3 13 9 11 12 -6 12 -8 0 -12 -4 -9 -9z"/>
<path d="M2510 2000 c0 -5 5 -10 11 -10 5 0 7 5 4 10 -3 6 -8 10 -11 10 -2 0
-4 -4 -4 -10z"/>
<path d="M2510 1920 c0 -5 5 -10 11 -10 5 0 7 5 4 10 -3 6 -8 10 -11 10 -2 0
-4 -4 -4 -10z"/>
<path d="M75 1860 c-3 -5 -1 -10 4 -10 6 0 11 5 11 10 0 6 -2 10 -4 10 -3 0
-8 -4 -11 -10z"/>
<path d="M2510 1840 c0 -5 5 -10 11 -10 5 0 7 5 4 10 -3 6 -8 10 -11 10 -2 0
-4 -4 -4 -10z"/>
<path d="M2510 1760 c0 -5 5 -10 11 -10 5 0 7 5 4 10 -3 6 -8 10 -11 10 -2 0
-4 -4 -4 -10z"/>
<path d="M2510 1680 c0 -5 5 -10 11 -10 5 0 7 5 4 10 -3 6 -8 10 -11 10 -2 0
-4 -4 -4 -10z"/>
<path d="M76 1607 c3 -10 9 -15 12 -12 3 3 0 11 -7 18 -10 9 -11 8 -5 -6z"/>
<path d="M2510 1600 c0 -5 5 -10 11 -10 5 0 7 5 4 10 -3 6 -8 10 -11 10 -2 0
-4 -4 -4 -10z"/>
<path d="M2510 1520 c0 -5 5 -10 11 -10 5 0 7 5 4 10 -3 6 -8 10 -11 10 -2 0
-4 -4 -4 -10z"/>
<path d="M2510 1440 c0 -5 5 -10 11 -10 5 0 7 5 4 10 -3 6 -8 10 -11 10 -2 0
-4 -4 -4 -10z"/>
<path d="M75 1380 c-3 -5 -1 -10 4 -10 6 0 11 5 11 10 0 6 -2 10 -4 10 -3 0
-8 -4 -11 -10z"/>
<path d="M2510 1360 c0 -5 5 -10 11 -10 5 0 7 5 4 10 -3 6 -8 10 -11 10 -2 0
-4 -4 -4 -10z"/>
<path d="M750 1319 c0 -5 5 -7 10 -4 6 3 10 8 10 11 0 2 -4 4 -10 4 -5 0 -10
-5 -10 -11z"/>
<path d="M2510 1280 c0 -5 5 -10 11 -10 5 0 7 5 4 10 -3 6 -8 10 -11 10 -2 0
-4 -4 -4 -10z"/>
<path d="M2510 1200 c0 -5 5 -10 11 -10 5 0 7 5 4 10 -3 6 -8 10 -11 10 -2 0
-4 -4 -4 -10z"/>
<path d="M76 1127 c3 -10 9 -15 12 -12 3 3 0 11 -7 18 -10 9 -11 8 -5 -6z"/>
<path d="M2510 1120 c0 -5 5 -10 11 -10 5 0 7 5 4 10 -3 6 -8 10 -11 10 -2 0
-4 -4 -4 -10z"/>
<path d="M2510 1040 c0 -5 5 -10 11 -10 5 0 7 5 4 10 -3 6 -8 10 -11 10 -2 0
-4 -4 -4 -10z"/>
<path d="M2510 960 c0 -5 5 -10 11 -10 5 0 7 5 4 10 -3 6 -8 10 -11 10 -2 0
-4 -4 -4 -10z"/>
<path d="M75 900 c-3 -5 -1 -10 4 -10 6 0 11 5 11 10 0 6 -2 10 -4 10 -3 0 -8
-4 -11 -10z"/>
<path d="M2510 880 c0 -5 5 -10 11 -10 5 0 7 5 4 10 -3 6 -8 10 -11 10 -2 0
-4 -4 -4 -10z"/>
<path d="M750 839 c0 -5 5 -7 10 -4 6 3 10 8 10 11 0 2 -4 4 -10 4 -5 0 -10
-5 -10 -11z"/>
<path d="M2510 800 c0 -5 5 -10 11 -10 5 0 7 5 4 10 -3 6 -8 10 -11 10 -2 0
-4 -4 -4 -10z"/>
<path d="M1615 760 c3 -5 8 -10 11 -10 2 0 4 5 4 10 0 6 -5 10 -11 10 -5 0 -7
-4 -4 -10z"/>
<path d="M1656 758 c3 -4 9 -8 15 -8 5 0 9 4 9 8 0 5 -7 9 -15 9 -8 0 -12 -4
-9 -9z"/>
<path d="M1740 760 c0 -6 7 -10 15 -10 8 0 15 2 15 4 0 2 -7 6 -15 10 -8 3
-15 1 -15 -4z"/>
<path d="M2510 720 c0 -5 5 -10 11 -10 5 0 7 5 4 10 -3 6 -8 10 -11 10 -2 0
-4 -4 -4 -10z"/>
<path d="M76 647 c3 -10 9 -15 12 -12 3 3 0 11 -7 18 -10 9 -11 8 -5 -6z"/>
<path d="M2510 640 c0 -5 5 -10 11 -10 5 0 7 5 4 10 -3 6 -8 10 -11 10 -2 0
-4 -4 -4 -10z"/>
<path d="M2510 560 c0 -5 5 -10 11 -10 5 0 7 5 4 10 -3 6 -8 10 -11 10 -2 0
-4 -4 -4 -10z"/>
<path d="M2510 480 c0 -5 5 -10 11 -10 5 0 7 5 4 10 -3 6 -8 10 -11 10 -2 0
-4 -4 -4 -10z"/>
<path d="M75 420 c-3 -5 -1 -10 4 -10 6 0 11 5 11 10 0 6 -2 10 -4 10 -3 0 -8
-4 -11 -10z"/>
<path d="M155 91 c-3 -5 -2 -12 3 -15 5 -3 9 1 9 9 0 17 -3 19 -12 6z"/>
<path d="M262 91 c-11 -7 -11 -9 0 -14 9 -3 15 1 15 9 0 8 -1 14 -1 14 -1 0
-7 -4 -14 -9z"/>
<path d="M2389 83 c-10 -12 -10 -15 -1 -9 7 4 20 2 30 -6 16 -12 16 -11 2 7
-8 11 -15 21 -16 23 -1 1 -7 -5 -15 -15z"/>
<path d="M2440 91 c0 -6 4 -13 10 -16 6 -3 7 1 4 9 -7 18 -14 21 -14 7z"/>
<path d="M2470 90 c0 -5 5 -10 11 -10 5 0 7 5 4 10 -3 6 -8 10 -11 10 -2 0 -4
-4 -4 -10z"/>
<path d="M426 78 c3 -5 10 -6 15 -3 13 9 11 12 -6 12 -8 0 -12 -4 -9 -9z"/>
</g>
</svg>
