<svg width="190" height="30" viewBox="0 0 190 30" fill="none" xmlns="http://www.w3.org/2000/svg">
<path d="M33.3047 7.14062H35.8773L44.2966 18.0063V7.14062H47.0072V22.8568H44.6942L36.0153 11.6754V22.8568H33.3047V7.14062Z" fill="#68788E"/>
<path d="M49.9155 7.14062H61.567V9.61966H52.6799V13.696H60.559V16.168H52.6775V20.3777H61.6792V22.8568H49.9155V7.14062Z" fill="#68788E"/>
<path d="M77.1263 7.14062L71.649 14.8186L77.3508 22.8568H74.0953L69.9418 16.8697L65.8116 22.8568H62.6473L68.3257 14.863L62.8719 7.1453H66.125L70.033 12.8471L73.962 7.1453L77.1263 7.14062Z" fill="#68788E"/>
<path d="M91.0941 15.0445V15.0001C91.0941 10.5331 94.4385 6.87305 99.2001 6.87305C102.095 6.87305 103.847 7.88337 105.351 9.31934L103.576 11.3634C102.32 10.194 100.973 9.41055 99.1767 9.41055C96.1902 9.41055 93.9894 11.8802 93.9894 14.9556V15.0001C93.9894 18.0755 96.1691 20.5685 99.1767 20.5685C101.106 20.5685 102.343 19.8038 103.688 18.5479L105.473 20.344C103.835 22.0489 102.037 23.1271 99.0972 23.1271C94.5063 23.1271 91.0941 19.5582 91.0941 15.0445Z" fill="#68788E"/>
<path d="M107.236 7.14062H109.998V20.3426H118.261V22.8568H107.236V7.14062Z" fill="#68788E"/>
<path d="M119.313 16.066V7.01758H122.08V15.9538C122.08 18.8725 123.584 20.4207 126.056 20.4207C128.528 20.4207 130.008 18.9614 130.008 16.066V7.01758H132.77V15.9351C132.77 20.6289 130.121 22.9863 126.012 22.9863C121.902 22.9863 119.313 20.6242 119.313 16.066Z" fill="#68788E"/>
<path d="M134.376 20.5669L136.037 18.5907C137.54 19.8933 139.077 20.6324 140.999 20.6324C142.704 20.6324 143.782 19.8255 143.782 18.6585V18.6117C143.782 17.4891 143.153 16.8834 140.235 16.2099C136.89 15.403 135.005 14.4137 135.005 11.5184V11.474C135.005 8.77978 137.25 6.91583 140.37 6.91583C142.446 6.87404 144.468 7.57487 146.072 8.89204L144.592 10.9805C143.188 9.92575 141.762 9.36446 140.326 9.36446C138.71 9.36446 137.765 10.1947 137.765 11.2354V11.2799C137.765 12.4937 138.485 13.0316 141.507 13.7495C144.828 14.5587 146.535 15.7491 146.535 18.3521V18.3989C146.535 21.3387 144.222 23.0903 140.922 23.0903C138.501 23.0975 136.166 22.1972 134.376 20.5669Z" fill="#68788E"/>
<path d="M152.199 9.70344H147.216V7.13086H159.966V9.70344H154.985V22.8587H152.199V9.70344Z" fill="#68788E"/>
<path d="M83.23 9.70344H78.2462V7.13086H90.9969V9.70344H86.0131V22.8587H83.23V9.70344Z" fill="#68788E"/>
<path d="M161.763 7.14062H173.414V9.61966H164.527V13.696H172.406V16.168H164.525V20.3777H173.531V22.8568H161.767L161.763 7.14062Z" fill="#68788E"/>
<path d="M175.683 7.14062H182.688C184.664 7.14062 186.212 7.7253 187.222 8.71224C187.652 9.16423 187.987 9.69635 188.211 10.2782C188.435 10.8601 188.541 11.4803 188.525 12.1034V12.1478C188.525 14.7204 186.977 16.278 184.799 16.9071L189.042 22.8568H185.768L181.902 17.3795H178.445V22.8568H175.683V7.14062ZM182.486 14.9309C184.463 14.9309 185.719 13.8995 185.719 12.3045V12.2601C185.719 10.5762 184.507 9.65474 182.463 9.65474H178.445V14.9309H182.486Z" fill="#68788E"/>
<path d="M20.7981 29.5H26.4555V0.5H7.94694L9.47411 2.02718H24.9306V27.9728H21.4694L7.63121 14.1347V23.6486H5.59653V8.19202L22.3861 24.9816V4.82427H17.2994V11.8872L5.91226 0.5H0V29.5H18.6325L17.1053 27.9728H1.52718V2.02718H5.28081L18.8243 15.5706V6.35145H20.859V21.2981L4.06935 4.50855V25.1757H9.15839V17.8181L10.6645 19.3243L20.7981 29.5Z" fill="url(#paint0_linear_15986_19258)"/>
<defs>
<linearGradient id="paint0_linear_15986_19258" x1="-0.636128" y1="28.8639" x2="27.0916" y2="1.13613" gradientUnits="userSpaceOnUse">
<stop stop-color="#68788E"/>
<stop offset="1" stop-color="#72E4D7"/>
</linearGradient>
</defs>
</svg>
