<svg width="153" height="34" viewBox="0 0 153 34" fill="none" xmlns="http://www.w3.org/2000/svg">
  <g clip-path="url(#clip0_6493_76190)">
    <path
      d="M63.3425 8.44482V25.5542H59.3875L51.0105 13.0644V25.5542H47.7188V8.44482H51.6738L60.0508 20.7882V8.44482H63.3425Z"
      fill="#1F1E5A" />
    <path
      d="M70.1472 11.2805V15.3378H78.696V18.0019H70.1472V22.6947H79.0648V25.5542H66.8555V8.44482H79.0648V11.2805H70.1472Z"
      fill="#1F1E5A" />
    <path
      d="M91.568 16.9507L97.2429 25.5542H92.9933L89.3082 19.2235L85.6477 25.5542H81.373L87.0724 16.9751L81.373 8.44482H85.5244L89.3077 14.7267L93.1154 8.44482H97.2423L91.568 16.9507Z"
      fill="#1F1E5A" />
    <path d="M112.966 11.3532H107.463V25.5542H104.073V11.3532H98.6445V8.44482H112.966V11.3532Z" fill="#1F1E5A" />
    <path
      d="M125.15 21.644H117.534L116.109 25.5547H112.498L119.106 8.44531H123.577L130.161 25.5547H126.574L125.15 21.644ZM124.216 19.0769L121.343 11.2066L118.469 19.0769H124.216Z"
      fill="#3B82B6" />
    <path
      d="M146.325 13.7485C146.178 19.2625 140.36 19.2932 135.86 19.0768V25.5541H132.52V8.44464C137.157 8.58435 146.288 7.00721 146.325 13.7485ZM143.083 13.7729C143.215 10.5369 138.011 11.2883 135.86 11.2309V16.4371C138.088 16.3871 143.224 17.1379 143.083 13.7729Z"
      fill="#3B82B6" />
    <path d="M152.319 8.44458V25.554H148.979V8.44458H152.319Z" fill="#3B82B6" />
    <path d="M25.7442 21.2563L21.3382 33.038L8.26758 12.7436L12.6621 0.961914L25.7442 21.2563Z" fill="#3B6EB6" />
    <path
      d="M12.6618 0.961914L8.26726 12.7436L0.679688 33.038V3.15753C0.679688 1.945 1.66773 0.961914 2.88638 0.961914H12.6618Z"
      fill="url(#paint0_linear_6493_76190)" />
    <path
      d="M33.3314 0.961914V30.8424C33.3314 32.0549 32.3434 33.038 31.1247 33.038H21.3379L25.7439 21.2563L33.3314 0.961914Z"
      fill="url(#paint1_linear_6493_76190)" />
    <path d="M12.6618 0.961914L0.679688 33.038L14.562 3.8947L12.6618 0.961914Z" fill="url(#paint2_linear_6493_76190)" />
    <path d="M21.338 33.0385L33.3201 0.962402L19.4492 30.1045L21.338 33.0385Z" fill="url(#paint3_linear_6493_76190)" />
  </g>
  <defs>
    <linearGradient id="paint0_linear_6493_76190" x1="4.39155" y1="33.6658" x2="6.71864" y2="1.02838"
      gradientUnits="userSpaceOnUse">
      <stop stop-color="#4CC3CC" />
      <stop offset="1" stop-color="#3A6DB5" />
    </linearGradient>
    <linearGradient id="paint1_linear_6493_76190" x1="29.0028" y1="0.693426" x2="27.3104" y2="32.7454"
      gradientUnits="userSpaceOnUse">
      <stop stop-color="#4CC3CC" />
      <stop offset="1" stop-color="#3A6DB5" />
    </linearGradient>
    <linearGradient id="paint2_linear_6493_76190" x1="13.6065" y1="2.44013" x2="-0.43352" y2="32.5788"
      gradientUnits="userSpaceOnUse">
      <stop stop-color="#4CC3CC" />
      <stop offset="1" stop-color="#3A6DB5" />
    </linearGradient>
    <linearGradient id="paint3_linear_6493_76190" x1="20.3978" y1="31.5624" x2="34.4378" y2="1.42372"
      gradientUnits="userSpaceOnUse">
      <stop stop-color="#4CC3CC" />
      <stop offset="1" stop-color="#3A6DB5" />
    </linearGradient>
    <clipPath id="clip0_6493_76190">
      <rect width="153" height="33" fill="white" transform="translate(0 0.5)" />
    </clipPath>
  </defs>
</svg>