<svg xmlns="http://www.w3.org/2000/svg" width="189" height="30" viewBox="0 0 189 30" fill="none">
  <path fill-rule="evenodd" clip-rule="evenodd"
        d="M90.7895 15.127V15.1715C90.7895 19.6852 94.2017 23.254 98.7925 23.254C101.732 23.254 103.531 22.1759 105.168 20.471L103.383 18.6748C102.039 19.9307 100.801 20.6955 98.8721 20.6955C95.8645 20.6955 93.6848 18.2024 93.6848 15.127V15.0826C93.6848 12.0072 95.8855 9.5375 98.8721 9.5375C100.668 9.5375 102.015 10.321 103.271 11.4903L105.046 9.44629C103.542 8.01032 101.791 7 98.8955 7C94.1338 7 90.7895 10.6601 90.7895 15.127ZM35.5726 7.26709H33V22.9832H35.7106V11.8018L44.3895 22.9832H46.7025V7.26709H43.9919V18.1327L35.5726 7.26709ZM61.2623 7.26709H49.6108V22.9832H61.3745V20.5042H52.3728V16.2945H60.2543V13.8225H52.3752V9.74612H61.2623V7.26709ZM76.8216 7.26709L71.3444 14.9451L77.0461 22.9832H73.7907L69.6371 16.9961L65.5069 22.9832H62.3427L68.0211 14.9895L62.5672 7.27177H65.8203L69.7283 12.9735L73.6574 7.27177L76.8216 7.26709ZM106.931 7.26709H109.693V20.4691H117.956V22.9832H106.931V7.26709ZM119.009 7.14551V16.194C119.009 20.7521 121.598 23.1142 125.707 23.1142C129.816 23.1142 132.466 20.7568 132.466 16.063V7.14551H129.704V16.194C129.704 19.0893 128.223 20.5487 125.751 20.5487C123.279 20.5487 121.775 19.0004 121.775 16.0817V7.14551H119.009ZM134.071 20.6933L135.732 18.7171C137.236 20.0198 138.772 20.7588 140.695 20.7588C142.4 20.7588 143.478 19.952 143.478 18.785V18.7382C143.478 17.6156 142.849 17.0099 139.93 16.3363C136.586 15.5295 134.701 14.5402 134.701 11.6449V11.6004C134.701 8.90625 136.946 7.04229 140.066 7.04229C142.141 7.0005 144.163 7.70134 145.767 9.0185L144.287 11.107C142.884 10.0522 141.457 9.49092 140.021 9.49092C138.405 9.49092 137.46 10.3212 137.46 11.3619V11.4063C137.46 12.6201 138.181 13.158 141.202 13.876C144.523 14.6852 146.23 15.8756 146.23 18.4786V18.5254C146.23 21.4651 143.917 23.2168 140.617 23.2168C138.197 23.224 135.861 22.3236 134.071 20.6933ZM146.911 9.83039H151.895V22.9856H154.68V9.83039H159.662V7.25781H146.911V9.83039ZM82.9253 9.83039H77.9415V7.25781H90.6922V9.83039H85.7084V22.9856H82.9253V9.83039ZM173.11 7.26709H161.458L161.463 22.9832H173.226V20.5042H164.22V16.2945H172.102V13.8225H164.222V9.74612H173.11V7.26709ZM175.378 7.26709H182.383C184.359 7.26709 185.907 7.85177 186.918 8.8387C187.347 9.29069 187.683 9.82282 187.906 10.4047C188.13 10.9865 188.237 11.6067 188.22 12.2298V12.2743C188.22 14.8468 186.672 16.4044 184.495 17.0335L188.737 22.9832H185.463L181.597 17.506H178.14V22.9832H175.378V7.26709ZM182.182 15.0573C184.158 15.0573 185.414 14.026 185.414 12.431V12.3865C185.414 10.7027 184.202 9.7812 182.158 9.7812H178.14V15.0573H182.182Z"
        fill="#68788e"/> <!-- Change this fill color to your desired color -->
  <path
        d="M20.7981 29.5H26.4555V0.5H7.94694L9.47411 2.02718H24.9306V27.9728H21.4694L7.63121 14.1347V23.6486H5.59653V8.19202L22.3861 24.9816V4.82427H17.2994V11.8872L5.91226 0.5H0V29.5H18.6325L17.1053 27.9728H1.52718V2.02718H5.28081L18.8243 15.5706V6.35145H20.859V21.2981L4.06935 4.50855V25.1757H9.15839V17.8181L10.6645 19.3243L20.7981 29.5Z"
        fill="#68788e"/> <!-- Change this fill color to your desired color -->
</svg>